<?xml version="1.0" encoding="UTF-8" standalone="no"?>
<!-- Created with Inkscape (http://www.inkscape.org/) -->

<svg
   width="50mm"
   height="50.000004mm"
   viewBox="0 0 50 50.000004"
   version="1.1"
   id="svg1"
   xmlns="http://www.w3.org/2000/svg"
   xmlns:svg="http://www.w3.org/2000/svg">
  <defs
     id="defs1" />
  <g
     id="layer1">
    <path
       style="display:inline;fill:#1d202a;fill-opacity:1;stroke-width:0.0706493;stroke-linecap:round;stroke-linejoin:round"
       d="M 6.646285,4.200044 4.270397,4.386157 0.588531,4.2e-5 0.055268,5.878448 0.812193,8.204042 0,10.19544 l 1.025926,1.581637 -0.475403,0.769443 1.549263,0.716771 0.788853,0.829007 -0.797077,0.120908 2.998803,2.668903 1.55592,-0.0026 m 0,-12.679508 L 9.0221709,4.386114 12.704035,0 l 0.533263,5.878407 -0.756925,2.325594 0.812192,1.991398 -1.025925,1.581635 0.475403,0.769445 -1.549263,0.716771 -0.788853,0.829007 0.797077,0.120905 -2.998802,2.668906 -1.555917,-0.0026"
       id="path1" />
    <path
       style="display:inline;fill:#1d202a;fill-opacity:1;stroke-width:0.0706493;stroke-linecap:round;stroke-linejoin:round"
       d="m 31.316769,26.60027 -2.375888,0.186113 -3.681866,-4.386115 -0.533263,5.878406 0.756925,2.325594 -0.812193,1.991398 1.025926,1.581637 -0.475403,0.769443 1.549263,0.716771 0.788853,0.829007 -0.797077,0.120908 2.998803,2.668903 1.55592,-0.0026 m 0,-12.679508 2.375886,0.186113 3.681864,-4.386114 0.533263,5.878407 -0.756925,2.325594 0.812192,1.991398 -1.025925,1.581635 0.475403,0.769445 -1.549263,0.716771 -0.788853,0.829007 0.797077,0.120905 -2.998802,2.668906 -1.555917,-0.0026"
       id="path1-4" />
  </g>
</svg>
