<?xml version="1.0" encoding="UTF-8" standalone="no"?>
<svg
   width="1440"
   height="466"
   id="svg"
   viewBox="0 0 1440 466"
   version="1.1"
   xmlns="http://www.w3.org/2000/svg"
   xmlns:svg="http://www.w3.org/2000/svg">
  <defs
     id="defs4" />
  <g
     id="g4"
     transform="translate(-1.9999955,-1.672514)">
    <path
       d="m 1442,1.672514 c 0,0 0,380.999996 0,380.999996 -35.7533,1.75731 -71.5067,3.51462 -116,3 -44.4934,-0.51461 -97.7267,-3.30114 -147,-6 -49.2733,-2.69885 -94.5865,-5.31004 -144,-7 -49.41356,-1.68995 -102.92747,-2.45866 -138.00001,3 -35.07253,5.45867 -51.70368,17.14472 -97.99999,15 -46.29632,-2.14471 -122.25779,-18.12019 -164,-16 -41.74222,2.1202 -49.26518,22.33608 -90,20 -40.73483,-2.33607 -114.6815,-27.2241 -163,-39 -48.31851,-11.77589 -71.00883,-10.43966 -113,4 -41.99118,14.43967 -103.2832,41.98277 -151,48 -47.716815,6.01724 -81.858415,-9.49138 -116.0000045,-25 0,0 0,-380.999996 0,-380.999996 z"
       stroke="none"
       stroke-width="0"
       fill="#ffad00"
       fill-opacity="0.265"
       class="path-0"
       id="path1" />
    <path
       d="m 1442,1.672514 c 0,0 0,190.999996 0,190.999996 -35.4588,7.21974 -70.9177,14.43948 -113,7 -42.0824,-7.43947 -90.7883,-29.53815 -144,-39 -53.2118,-9.46184 -110.9294,-6.28686 -148,7 -37.07066,13.28687 -53.49436,36.68563 -98.00001,33 -44.50565,-3.68562 -117.09324,-34.45562 -169.99999,-42 -52.90676,-7.54437 -86.13268,8.13689 -129,24 -42.86733,15.86312 -95.37606,31.90808 -133,34 -37.62395,2.09193 -60.36313,-9.76917 -93,-26 -32.63688,-16.23082 -75.17147,-36.83137 -130,-33 -54.82854,3.83138 -121.95101,32.09468 -171,42 -49.049005,9.90533 -80.024505,1.45267 -111.0000045,-7 0,0 0,-190.999996 0,-190.999996 z"
       stroke="none"
       stroke-width="0"
       fill="#ffad00"
       fill-opacity="0.53"
       class="path-2"
       id="path3" />
    <path
       d="m 1442,1.672514 c 0,0 0,285.999996 0,285.999996 -34.3105,16.51121 -68.6209,33.02242 -114,22 -45.3791,-11.02242 -101.8269,-49.57847 -153,-51 -51.1731,-1.42153 -97.0716,34.29146 -144,42 -46.92845,7.70854 -94.88688,-12.58737 -133.00001,-14 -38.11313,-1.41263 -66.38096,16.05802 -109.99999,13 -43.61904,-3.05802 -102.58926,-26.64471 -148,-32 -45.41075,-5.35529 -77.262,7.52082 -108,16 -30.73801,8.47918 -60.36277,12.56143 -113,3 -52.63724,-9.56142 -128.28695,-32.76653 -174,-24 -45.71306,8.76654 -61.48945,49.50473 -97,59 -35.51056,9.49528 -90.755285,-12.25236 -146.0000045,-34 0,0 0,-285.999996 0,-285.999996 z"
       stroke="none"
       stroke-width="0"
       fill="#ffad00"
       fill-opacity="0.4"
       class="path-1"
       id="path2" />
    <path
       d="m 1442,1.672514 c 0,0 0,95.999995 0,95.999995 -57.4176,-14.53441 -114.8351,-29.06882 -153,-31 -38.1649,-1.93117 -57.0772,8.74091 -89,8 -31.9229,-0.7409 -76.8563,-12.89477 -126,-8 -49.1437,4.89478 -102.49756,26.83821 -143.00001,26 -40.50244,-0.8382 -68.15347,-24.45803 -118.99999,-31 -50.84653,-6.54196 -124.88856,3.99394 -174,16 -49.11145,12.00607 -73.2923,25.482291 -115,32.000001 -41.70771,6.51772 -100.94228,6.07692 -149,-5 -48.05773,-11.076911 -84.93862,-32.789931 -127,-39.000001 -42.06139,-6.21006 -89.30326,3.08284 -131,11 -41.696755,7.91717 -77.848385,14.45859 -114.0000045,21 0,0 0,-95.999995 0,-95.999995 z"
       stroke="none"
       stroke-width="0"
       fill="#ffad00"
       fill-opacity="1"
       class="path-3"
       id="path4" />
  </g>
</svg>
