<svg width="100%" height="100%" id="svg" viewBox="0 0 1440 466" xmlns="http://www.w3.org/2000/svg"><path d="M 0,476 C 0,476 0,95 0,95 C 35.75332510505224,93.24269415408372 71.50665021010448,91.48538830816743 116,92 C 160.49334978989552,92.51461169183257 213.7267242646343,95.301140921414 263,98 C 312.2732757353657,100.698859078586 357.58645273135846,103.31004800617653 407,105 C 456.41354726864154,106.68995199382347 509.92746480993196,107.45866705387988 545,102 C 580.072535190068,96.54133294612012 596.7036880289135,84.85528377830391 643,87 C 689.2963119710865,89.14471622169609 765.257783074414,105.1201978329045 807,103 C 848.742216925586,100.8798021670955 856.2651796734305,80.66392489007808 897,83 C 937.7348203265695,85.33607510992192 1011.6814982318642,110.22410260678319 1060,122 C 1108.3185017681358,133.7758973932168 1131.0088273991134,132.43966468278913 1173,118 C 1214.9911726008866,103.56033531721087 1276.283192171682,76.01723866206024 1324,70 C 1371.716807828318,63.982761337939756 1405.858403914159,79.49138066896988 1440,95 C 1440,95 1440,476 1440,476 Z" stroke="none" stroke-width="0" fill="#FFAD00" fill-opacity="0.265" class="path-0" style="transition-property: all; transition-timing-function: cubic-bezier(0.4, 0, 0.2, 1); transition-duration: 300ms; transition-delay: 150ms;"></path><path d="M 0,476 C 0,476 0,190 0,190 C 34.31044466362917,173.4887899999823 68.62088932725834,156.97757999996458 114,168 C 159.37911067274166,179.02242000003542 215.82688735459584,217.57847000012396 267,219 C 318.17311264540416,220.42152999987604 364.07156125435836,184.7085399995396 411,177 C 457.92843874564164,169.2914600004604 505.8868676279708,189.58737000171766 544,191 C 582.1131323720292,192.41262999828234 610.3809682337587,174.94197999358974 654,178 C 697.6190317662413,181.05802000641026 756.5892594369942,204.6447100239234 802,210 C 847.4107405630058,215.3552899760766 879.2619940182641,202.47917991071665 910,194 C 940.7380059817359,185.52082008928335 970.3627644899498,181.43857033320998 1023,191 C 1075.6372355100502,200.56142966679002 1151.2869480219365,223.76653875644345 1197,215 C 1242.7130519780635,206.23346124355655 1258.4894434223038,165.49527464101615 1294,156 C 1329.5105565776962,146.50472535898385 1384.755278288848,168.2523626794919 1440,190 C 1440,190 1440,476 1440,476 Z" stroke="none" stroke-width="0" fill="#FFAD00" fill-opacity="0.4" class="path-1" style="transition-property: all; transition-timing-function: cubic-bezier(0.4, 0, 0.2, 1); transition-duration: 300ms; transition-delay: 150ms;"></path><path d="M 0,476 C 0,476 0,285 0,285 C 35.45882111280123,277.7802641667803 70.91764222560246,270.5605283335606 113,278 C 155.08235777439754,285.4394716664394 203.78825221039142,307.53815083253795 257,317 C 310.2117477896086,326.46184916746205 367.92934893283194,323.2868683362876 405,310 C 442.07065106716806,296.7131316637124 458.49435205828047,273.3143758223116 503,277 C 547.5056479417195,280.6856241776884 620.0932428340466,311.4556283744659 673,319 C 725.9067571659534,326.5443716255341 759.132676605533,310.86311067982484 802,295 C 844.867323394467,279.13688932017516 897.3760507438215,263.0919289062348 935,261 C 972.6239492561785,258.9080710937652 995.3631204191818,270.7691736952361 1028,287 C 1060.6368795808182,303.2308263047639 1103.1714675794512,323.8313763128211 1158,320 C 1212.8285324205488,316.1686236871789 1279.951009263014,287.90532105347967 1329,278 C 1378.048990736986,268.09467894652033 1409.024495368493,276.5473394732602 1440,285 C 1440,285 1440,476 1440,476 Z" stroke="none" stroke-width="0" fill="#FFAD00" fill-opacity="0.53" class="path-2" style="transition-property: all; transition-timing-function: cubic-bezier(0.4, 0, 0.2, 1); transition-duration: 300ms; transition-delay: 150ms;"></path><path d="M 0,476 C 0,476 0,380 0,380 C 57.417551029804216,394.5344144609974 114.83510205960843,409.06882892199485 153,411 C 191.16489794039157,412.93117107800515 210.0771427913706,402.259098773018 242,403 C 273.9228572086294,403.740901226982 318.85632677490923,415.8947759859328 368,411 C 417.14367322509077,406.1052240140672 470.4975501089923,384.1617972832507 511,385 C 551.5024498910077,385.8382027167493 579.1534727891217,409.4580348810647 630,416 C 680.8465272108783,422.5419651189353 754.8885587345209,412.00606319249044 804,400 C 853.1114412654791,387.99393680750956 877.2922922727943,374.51771234897353 919,368 C 960.7077077272057,361.48228765102647 1019.9422721743026,361.9230874116153 1068,373 C 1116.0577278256974,384.0769125883847 1152.9386190299954,405.78993800456516 1195,412 C 1237.0613809700046,418.21006199543484 1284.3032517057156,408.9171605701242 1326,401 C 1367.6967482942844,393.0828394298758 1403.8483741471423,386.5414197149379 1440,380 C 1440,380 1440,476 1440,476 Z" stroke="none" stroke-width="0" fill="#FFAD00" fill-opacity="1" class="path-3" style="transition-property: all; transition-timing-function: cubic-bezier(0.4, 0, 0.2, 1); transition-duration: 300ms; transition-delay: 150ms;"></path></svg>